<svg width="282" height="48" viewBox="0 0 282 48" fill="none" xmlns="http://www.w3.org/2000/svg">
<path d="M271.735 18.128C267.549 18.128 265.433 20.842 265.019 24.844H277.853C277.623 20.566 275.691 18.128 271.735 18.128ZM280.567 37.08C278.681 38.092 275.783 38.46 273.437 38.46C264.835 38.46 261.063 33.492 261.063 26.454C261.063 19.508 264.927 14.54 271.919 14.54C279.003 14.54 281.855 19.462 281.855 26.454V28.248H265.065C265.617 32.158 268.147 34.688 273.575 34.688C276.243 34.688 278.497 34.182 280.567 33.446V37.08Z" fill="#101214"/>
<path d="M257.927 33.86V37.402C256.547 38.138 254.431 38.46 252.315 38.46C244.127 38.46 240.309 33.492 240.309 26.454C240.309 19.508 244.127 14.54 252.315 14.54C254.385 14.54 255.995 14.816 257.789 15.644V19.324C256.317 18.634 254.753 18.22 252.591 18.22C246.611 18.22 244.173 21.992 244.173 26.454C244.173 30.916 246.657 34.688 252.683 34.688C255.029 34.688 256.501 34.366 257.927 33.86Z" fill="#101214"/>
<path d="M236.173 24.522V38H232.217V24.108C232.217 19.968 230.561 18.128 226.789 18.128C223.109 18.128 220.579 20.566 220.579 25.212V38H216.623V15H220.579V18.772C222.051 16.058 224.765 14.54 227.847 14.54C233.137 14.54 236.173 18.174 236.173 24.522Z" fill="#101214"/>
<path d="M201.792 18.128C197.606 18.128 195.49 20.842 195.076 24.844H207.91C207.68 20.566 205.748 18.128 201.792 18.128ZM210.624 37.08C208.738 38.092 205.84 38.46 203.494 38.46C194.892 38.46 191.12 33.492 191.12 26.454C191.12 19.508 194.984 14.54 201.976 14.54C209.06 14.54 211.912 19.462 211.912 26.454V28.248H195.122C195.674 32.158 198.204 34.688 203.632 34.688C206.3 34.688 208.554 34.182 210.624 33.446V37.08Z" fill="#101214"/>
<path d="M166.973 28.478V15H170.929V28.892C170.929 33.032 172.585 34.872 176.357 34.872C180.037 34.872 182.567 32.434 182.567 27.788V15H186.523V38H182.567V34.228C181.095 36.942 178.381 38.46 175.299 38.46C170.009 38.46 166.973 34.826 166.973 28.478Z" fill="#101214"/>
<path d="M163.627 37.954C163.305 38.046 162.615 38.138 161.603 38.138C157.831 38.138 155.439 36.344 155.439 32.112V5.38599H159.395V31.652C159.395 33.722 160.775 34.458 162.477 34.458C162.891 34.458 163.167 34.458 163.627 34.412V37.954Z" fill="#101214"/>
<path d="M145.236 12.562V15H151.17V18.68H145.236V38H141.372V18.68H137.646V15H141.372V12.47C141.372 8.19201 143.764 5.29401 148.686 5.29401C149.882 5.29401 150.664 5.47801 151.354 5.66201V9.29601C150.664 9.15801 149.79 9.06601 148.87 9.06601C146.432 9.06601 145.236 10.492 145.236 12.562Z" fill="#101214"/>
<path d="M134.245 24.522V38H130.289V24.108C130.289 19.968 128.633 18.128 124.861 18.128C121.181 18.128 118.651 20.566 118.651 25.212V38H114.695V15H118.651V18.772C120.123 16.058 122.837 14.54 125.919 14.54C131.209 14.54 134.245 18.174 134.245 24.522Z" fill="#101214"/>
<path d="M99.2416 38.46C92.3416 38.46 88.2936 33.354 88.2936 26.454C88.2936 19.554 92.3416 14.54 99.2416 14.54C106.096 14.54 110.098 19.554 110.098 26.454C110.098 33.354 106.096 38.46 99.2416 38.46ZM99.2416 18.22C94.3196 18.22 92.1576 22.084 92.1576 26.454C92.1576 30.824 94.3196 34.78 99.2416 34.78C104.118 34.78 106.234 30.824 106.234 26.454C106.234 22.084 104.118 18.22 99.2416 18.22Z" fill="#101214"/>
<path d="M85.392 32.664V36.666C83.506 37.908 80.516 38.46 77.388 38.46C67.452 38.46 61.84 32.48 61.84 22.958C61.84 13.758 67.452 7.31799 77.296 7.31799C80.24 7.31799 83.184 7.86999 85.346 9.43399V13.436C83.184 12.056 80.792 11.32 77.296 11.32C70.212 11.32 65.98 16.012 65.98 22.958C65.98 29.904 70.35 34.504 77.526 34.504C80.7 34.504 83.184 33.768 85.392 32.664Z" fill="#101214"/>
<path d="M0 12C0 5.37258 5.37258 0 12 0H36C42.6274 0 48 5.37258 48 12V36C48 42.6274 42.6274 48 36 48H12C5.37258 48 0 42.6274 0 36V12Z" fill="#1868DB"/>
<g clip-path="url(#clip0_1_6058)">
<path d="M34.7396 28.5301C27.3329 24.9487 25.1691 24.4136 22.0484 24.4136C18.3866 24.4136 15.2658 25.9367 12.4779 30.2179L12.0202 30.9177C11.6457 31.494 11.5625 31.6998 11.5625 31.9468C11.5625 32.1938 11.6873 32.3996 12.145 32.6878L16.847 35.6105C17.0967 35.7752 17.3048 35.8575 17.5128 35.8575C17.7625 35.8575 17.9289 35.734 18.1786 35.3635L18.9276 34.2109C20.0927 32.4408 21.1329 31.8645 22.4645 31.8645C23.6296 31.8645 25.0027 32.1938 26.7087 33.0171L31.6188 35.3224C32.1181 35.5693 32.659 35.4458 32.9087 34.8695L35.2389 29.765C35.4886 29.1887 35.3221 28.8182 34.7396 28.5301ZM13.1437 19.5149C20.5504 23.0963 22.7141 23.6314 25.8349 23.6314C29.4966 23.6314 32.6174 22.1083 35.4053 17.8271L35.8631 17.1273C36.2376 16.551 36.3208 16.3452 36.3208 16.0982C36.3208 15.8512 36.1959 15.6454 35.7382 15.3572L31.0362 12.4345C30.7866 12.2698 30.5785 12.1875 30.3705 12.1875C30.1208 12.1875 29.9544 12.311 29.7047 12.6815L28.9557 13.8341C27.7906 15.6042 26.7504 16.1805 25.4188 16.1805C24.2537 16.1805 22.8806 15.8512 21.1745 15.0279L16.2645 12.7226C15.7652 12.4757 15.2242 12.5992 14.9746 13.1755L12.6444 18.28C12.3947 18.8563 12.5612 19.2268 13.1437 19.5149Z" fill="white"/>
</g>
<defs>
<clipPath id="clip0_1_6058">
<rect width="24.7583" height="23.67" fill="white" transform="translate(11.5625 12.1875)"/>
</clipPath>
</defs>
</svg>
