<svg width="216" height="64" viewBox="0 0 216 64" fill="none" xmlns="http://www.w3.org/2000/svg">
<g clip-path="url(#clip0_6212_19847)">
<g clip-path="url(#clip1_6212_19847)">
<path d="M90.3049 52.4798C95.1041 52.4798 98.5919 50.0407 98.5919 45.6746C98.5919 41.0375 95.0148 39.9835 90.6328 39.0199C87.473 38.3274 85.9825 37.8154 85.9825 36.069C85.9825 34.5334 87.5028 33.5397 89.828 33.5397C92.0338 33.5397 93.7032 34.6236 93.9416 36.7917H98.0851C97.7572 32.4557 94.657 30.0768 89.8578 30.0768C85.1181 30.0768 81.69 32.275 81.69 36.5207C81.69 41.0074 85.1776 42.0311 88.9933 42.9043C92.2424 43.6571 94.2696 44.0787 94.2696 46.1865C94.2696 48.1738 92.3319 48.9567 90.1261 48.9567C87.0854 48.9567 85.6248 47.9329 85.3267 45.3434H81.0938C81.2429 49.8902 84.5218 52.4798 90.3049 52.4798Z" fill="black"/>
<path d="M113.484 52.4498C116.435 52.4498 118.492 51.5464 119.952 50.1613C121.383 48.8063 122.188 46.9695 122.307 45.0725H118.074C117.806 47.3308 116.017 48.8666 113.484 48.8666C109.907 48.8666 107.641 45.7049 107.641 41.3086C107.641 37.0327 109.519 33.7205 113.454 33.7205C115.958 33.7205 117.568 35.1358 117.955 37.3037H122.248C121.801 33.2086 118.7 30.0469 113.454 30.0469C107.164 30.0469 103.229 34.925 103.229 41.3086C103.229 47.7826 107.492 52.4498 113.484 52.4498Z" fill="black"/>
<path d="M127.51 51.9984H131.833V42.5133H140.209V51.9984H144.531V30.4688H140.209V38.8999H131.833V30.4688H127.51V51.9984Z" fill="black"/>
<path d="M160.144 52.4799C166.433 52.4799 170.398 47.7223 170.398 41.2785C170.398 34.8346 166.433 30.0469 160.144 30.0469C153.854 30.0469 149.859 34.8346 149.859 41.2785C149.859 47.7223 153.854 52.4799 160.144 52.4799ZM160.174 48.8967C156.268 48.8967 154.272 45.5543 154.272 41.2785C154.272 36.9726 156.268 33.6301 160.174 33.6301C164.079 33.6301 165.986 36.9726 165.986 41.2785C165.986 45.5543 164.079 48.8967 160.174 48.8967Z" fill="black"/>
<path d="M185.101 52.4799C191.391 52.4799 195.355 47.7223 195.355 41.2785C195.355 34.8346 191.391 30.0469 185.101 30.0469C178.811 30.0469 174.818 34.8346 174.818 41.2785C174.818 47.7223 178.811 52.4799 185.101 52.4799ZM185.131 48.8967C181.227 48.8967 179.229 45.5543 179.229 41.2785C179.229 36.9726 181.227 33.6301 185.131 33.6301C189.036 33.6301 190.944 36.9726 190.944 41.2785C190.944 45.5543 189.036 48.8967 185.131 48.8967Z" fill="black"/>
<path d="M200.698 51.9984H215.037V48.3548H205.021V30.4688H200.698V51.9984Z" fill="black"/>
<path fill-rule="evenodd" clip-rule="evenodd" d="M88.9933 42.9045C85.1776 42.0313 81.69 41.0075 81.69 36.5209C81.69 32.2751 85.1181 30.077 89.8578 30.077C94.4888 30.077 97.5378 32.292 98.0404 36.3432C98.0587 36.4904 98.0736 36.6399 98.0851 36.7918H93.9416C93.7032 34.6238 92.0338 33.5399 89.828 33.5399C87.5028 33.5399 85.9825 34.5335 85.9825 36.0691C85.9825 37.8156 87.473 38.3276 90.6328 39.0201C95.0148 39.9836 98.5919 41.0376 98.5919 45.6748C98.5919 50.0409 95.1041 52.4799 90.3049 52.4799C84.7149 52.4799 81.4644 50.0603 81.1191 45.7922C81.1072 45.6448 81.0987 45.4952 81.0938 45.3435H85.3267C85.6248 47.9331 87.0854 48.9568 90.1261 48.9568C92.3319 48.9568 94.2696 48.174 94.2696 46.1867C94.2696 44.1252 92.3306 43.6766 89.2059 42.9536L88.9933 42.9045ZM84.9335 45.7922C85.1337 46.9672 85.6026 47.87 86.4271 48.4807C87.3249 49.1458 88.5679 49.4055 90.1261 49.4055C91.2717 49.4055 92.3982 49.204 93.2548 48.7035C94.1366 48.1882 94.722 47.3571 94.722 46.1867C94.722 45.5839 94.5756 45.0704 94.2751 44.6364C93.9782 44.2079 93.5544 43.8908 93.0559 43.6379C92.132 43.1694 90.8371 42.87 89.344 42.525C89.2619 42.5059 89.1794 42.4868 89.0962 42.4676C87.1771 42.0283 85.4351 41.5684 84.1683 40.6988C82.9444 39.8586 82.1425 38.6203 82.1425 36.5209C82.1425 34.533 82.9373 33.0573 84.2684 32.0654C85.6155 31.0614 87.5511 30.5257 89.8578 30.5257C92.1857 30.5257 94.0498 31.1026 95.3634 32.1571C96.5655 33.1221 97.3462 34.5184 97.5844 36.3432H94.3306C94.1338 35.3379 93.6306 34.5462 92.8955 33.995C92.0745 33.3794 91.0017 33.0912 89.828 33.0912C88.6076 33.0912 87.5505 33.3509 86.7835 33.8545C86.0025 34.3673 85.53 35.1324 85.53 36.0691C85.53 36.5717 85.6381 37.0165 85.8794 37.405C86.1192 37.7909 86.4695 38.0877 86.8989 38.3299C87.7364 38.8021 88.9691 39.1149 90.535 39.4582C92.7384 39.9427 94.6429 40.4333 96.0027 41.3419C96.6721 41.7892 97.2 42.3327 97.5634 43.022C97.9274 43.7123 98.1394 44.5736 98.1394 45.6748C98.1394 47.7266 97.3261 49.296 95.9672 50.3629C94.5961 51.4393 92.6327 52.0313 90.3049 52.0313C87.4745 52.0313 85.321 51.3968 83.8661 50.264C82.5295 49.2231 81.7377 47.7269 81.5731 45.7922H84.9335ZM119.641 49.8368C120.865 48.6777 121.604 47.1399 121.811 45.5212H118.462C118.01 47.8061 116.079 49.3152 113.485 49.3152C111.546 49.3152 109.954 48.452 108.86 47.0053C107.774 45.5693 107.189 43.5779 107.189 41.3086C107.189 39.1143 107.67 37.1166 108.702 35.6539C109.748 34.1718 111.339 33.2718 113.455 33.2718C114.795 33.2718 115.93 33.6517 116.787 34.3531C117.553 34.9795 118.071 35.8412 118.323 36.8551H121.73C121.437 35.114 120.626 33.5917 119.352 32.4759C117.959 31.256 115.984 30.4955 113.455 30.4955C110.437 30.4955 108.007 31.6619 106.325 33.5783C104.639 35.501 103.683 38.206 103.683 41.3086C103.683 47.5752 107.782 52.0012 113.485 52.0012C116.333 52.0012 118.274 51.1332 119.641 49.8368ZM122.188 36.8551C121.57 32.98 118.508 30.0469 113.455 30.0469C107.165 30.0469 103.23 34.925 103.23 41.3086C103.23 47.7826 107.493 52.4498 113.485 52.4498C116.436 52.4498 118.493 51.5464 119.953 50.1613C121.271 48.9134 122.058 47.257 122.267 45.5212C122.285 45.3721 122.299 45.2224 122.308 45.0725H118.075C117.807 47.3308 116.018 48.8666 113.485 48.8666C109.908 48.8666 107.642 45.7049 107.642 41.3086C107.642 37.0327 109.52 33.7205 113.455 33.7205C115.959 33.7205 117.569 35.1358 117.956 37.3037H122.249C122.232 37.1529 122.212 37.0033 122.188 36.8551ZM131.383 42.0644H140.664V51.5495H144.082V30.9171H140.664V39.3483H131.383V30.9171H127.965V51.5495H131.383V42.0644ZM131.835 51.9981H127.513V30.4685H131.835V38.8996H140.211V30.4685H144.534V51.9981H140.211V42.513H131.835V51.9981ZM204.572 48.8034V30.9171H201.156V51.5495H214.588V48.8034H204.572ZM215.041 48.3546V51.9981H200.703V30.4685H205.025V48.3546H215.041ZM167.291 48.9986C168.983 47.0994 169.946 44.4109 169.946 41.2785C169.946 38.1459 168.983 35.4495 167.29 33.5427C165.603 31.6414 163.165 30.4955 160.145 30.4955C157.123 30.4955 154.678 31.6416 152.982 33.5433C151.282 35.4504 150.313 38.1468 150.313 41.2785C150.313 44.41 151.282 47.0985 152.982 48.9979C154.676 50.8921 157.123 52.0313 160.145 52.0313C163.165 52.0313 165.604 50.8922 167.291 48.9986ZM155.391 46.9518C154.332 45.4833 153.819 43.478 153.819 41.2785C153.819 39.0645 154.331 37.0517 155.389 35.5792C156.461 34.0899 158.072 33.1815 160.174 33.1815C162.277 33.1815 163.868 34.0912 164.916 35.5831C165.951 37.0563 166.44 39.0683 166.44 41.2785C166.44 43.4741 165.951 45.4787 164.915 46.9479C163.868 48.4357 162.277 49.3453 160.174 49.3453C158.072 49.3453 156.461 48.437 155.391 46.9518ZM192.251 48.9986C193.942 47.0994 194.906 44.4109 194.906 41.2785C194.906 38.1459 193.942 35.4495 192.25 33.5427C190.563 31.6414 188.124 30.4955 185.103 30.4955C182.083 30.4955 179.636 31.6416 177.942 33.5433C176.242 35.4504 175.272 38.1468 175.272 41.2785C175.272 44.41 176.242 47.0985 177.942 48.9979C179.636 50.8921 182.081 52.0313 185.103 52.0313C188.125 52.0313 190.563 50.8922 192.251 48.9986ZM180.349 46.9518C179.291 45.4833 178.779 43.478 178.779 41.2785C178.779 39.0645 179.291 37.0517 180.349 35.5792C181.42 34.0899 183.031 33.1815 185.133 33.1815C187.237 33.1815 188.827 34.0912 189.875 35.5831C190.911 37.0563 191.398 39.0683 191.398 41.2785C191.398 43.4741 190.911 45.4787 189.875 46.9479C188.827 48.4357 187.237 49.3453 185.133 49.3453C183.031 49.3453 181.42 48.437 180.349 46.9518ZM170.399 41.2785C170.399 47.7223 166.433 52.4799 160.145 52.4799C153.855 52.4799 149.86 47.7223 149.86 41.2785C149.86 34.8346 153.855 30.0469 160.145 30.0469C166.433 30.0469 170.399 34.8346 170.399 41.2785ZM154.272 41.2785C154.272 45.5543 156.269 48.8967 160.174 48.8967C164.079 48.8967 165.987 45.5543 165.987 41.2785C165.987 36.9726 164.079 33.6301 160.174 33.6301C156.269 33.6301 154.272 36.9726 154.272 41.2785ZM185.103 52.4799C191.393 52.4799 195.357 47.7223 195.357 41.2785C195.357 34.8346 191.393 30.0469 185.103 30.0469C178.813 30.0469 174.82 34.8346 174.82 41.2785C174.82 47.7223 178.813 52.4799 185.103 52.4799ZM185.133 48.8967C181.229 48.8967 179.231 45.5543 179.231 41.2785C179.231 36.9726 181.229 33.6301 185.133 33.6301C189.038 33.6301 190.947 36.9726 190.947 41.2785C190.947 45.5543 189.038 48.8967 185.133 48.8967Z" fill="black"/>
<path d="M81.6875 21.5224H85.0077C87.8292 21.5224 89.2597 19.6878 89.2597 16.9034C89.2597 14.119 87.9211 12.2194 85.0996 12.2194H81.6875V21.5224ZM82.8687 20.4944V13.2342H85.0602C87.265 13.2342 88.0523 14.7175 88.0523 16.9034C88.0523 19.0892 87.1731 20.4944 84.9684 20.4944H82.8687Z" fill="black"/>
<path d="M93.4375 21.5224H94.6187V12.2194H93.4375V21.5224Z" fill="black"/>
<path d="M106.505 21.5226H107.267V16.6043H103.264V17.6192H106.085V17.8404C106.085 19.4018 105.18 20.7029 103.251 20.7029C101.348 20.7029 100.009 19.1806 100.009 16.9036C100.009 14.7177 101.033 13.0393 103.29 13.0393C104.773 13.0393 105.652 13.7809 105.915 15.017H107.135C106.833 13.1954 105.495 12.0244 103.316 12.0244C100.364 12.0244 98.802 14.1713 98.802 16.9036C98.802 19.727 100.574 21.7177 103.211 21.7177C104.445 21.7177 105.455 21.2493 106.138 20.2996H106.164L106.505 21.5226Z" fill="black"/>
<path d="M111.677 21.5224H112.858V12.2194H111.677V21.5224Z" fill="black"/>
<path d="M116.802 13.2472H119.925V21.5224H121.106V13.2472H124.23V12.2194H116.802V13.2472Z" fill="black"/>
<path d="M126.234 21.5224H127.442L128.452 18.6859H132.192L133.19 21.5224H134.475L131.012 12.2194H129.686L126.234 21.5224ZM129.908 14.6135C130.093 14.08 130.342 13.2993 130.342 13.2993H130.368C130.368 13.2993 130.605 14.093 130.788 14.6135L131.864 17.7362H128.793L129.908 14.6135Z" fill="black"/>
<path d="M138.25 21.5224H144.353V20.4425H139.431V12.2194H138.25V21.5224Z" fill="black"/>
<path d="M148.271 21.5224H155.056V20.4425H149.452V17.1767H154.399V16.1877H149.452V13.2472H154.899V12.2194H148.271V21.5224Z" fill="black"/>
<path d="M164.031 21.5224H170.133V20.4425H165.213V12.2194H164.031V21.5224Z" fill="black"/>
<path d="M174.057 21.5224H180.843V20.4425H175.239V17.1767H180.186V16.1877H175.239V13.2472H180.685V12.2194H174.057V21.5224Z" fill="black"/>
<path d="M188.413 21.6655C190.421 21.6655 192.008 20.7677 192.008 18.5168V12.2194H190.827V18.3997C190.827 19.987 189.935 20.6636 188.453 20.6636C186.904 20.6636 185.999 19.987 185.999 18.3997V12.2194H184.817V18.5168C184.817 20.7677 186.366 21.6655 188.413 21.6655Z" fill="black"/>
<path d="M195.781 13.2472H198.904V21.5224H200.086V13.2472H203.209V12.2194H195.781V13.2472Z" fill="black"/>
<path d="M207.135 21.5224H213.919V20.4425H208.317V17.1767H213.264V16.1877H208.317V13.2472H213.762V12.2194H207.135V21.5224Z" fill="black"/>
<path d="M32 64C49.6731 64 64 49.6731 64 32C64 14.3269 49.6731 0 32 0C14.3269 0 0 14.3269 0 32C0 49.6731 14.3269 64 32 64Z" fill="black"/>
<path d="M15.2145 23.9142H16.6375C17.6364 23.8927 18.6294 24.071 19.5585 24.4385C20.3715 24.7604 21.1105 25.2446 21.7304 25.8615C22.3329 26.4784 22.7929 27.2197 23.0785 28.0334C23.6776 29.781 23.6776 31.6782 23.0785 33.4258V33.5006H29.8924C30.1069 32.593 30.2076 31.6622 30.1919 30.7296C30.2092 29.1293 29.8769 27.5447 29.2184 26.0861C28.6202 24.6404 27.7565 23.3194 26.6719 22.1917C25.564 21.0791 24.2717 20.167 22.8524 19.4955C21.3963 18.8294 19.81 18.4969 18.209 18.522H8.84863V33.5006H15.2145V23.9142Z" fill="#F52849"/>
<path d="M19.3298 42.9355C20.9541 42.9528 22.5632 42.6208 24.0481 41.962C25.4674 41.2905 26.7597 40.3784 27.8676 39.2658C28.9768 38.1577 29.8438 36.8316 30.4141 35.3713C30.6473 34.7839 30.8474 34.1838 31.0132 33.5739H24.1985C23.9119 34.3651 23.4513 35.0817 22.8504 35.6709C22.2176 36.2715 21.482 36.7535 20.6785 37.0939C19.7495 37.4614 18.7565 37.6397 17.7577 37.6182H16.3347V33.5745H9.96875V43.0104H19.3298V42.9355Z" fill="#F52849"/>
<path d="M18.5118 25.5617H19.9347C20.9335 25.5402 21.9266 25.7185 22.8556 26.086C23.6686 26.4079 24.4076 26.892 25.0275 27.5089C25.6298 28.1256 26.09 28.8668 26.3756 29.6801C26.9747 31.4277 26.9747 33.325 26.3756 35.0725V35.1473H33.1895C33.4041 34.2397 33.5047 33.3089 33.489 32.3763C33.5063 30.7761 33.174 29.1914 32.5155 27.7329C31.9173 26.287 31.0536 24.9662 29.969 23.8384C28.8611 22.726 27.5688 21.8137 26.1495 21.1422C24.6934 20.4762 23.1071 20.1436 21.5061 20.1686H12.1458V35.1473H18.5118V25.5617Z" fill="#23F1D8"/>
<path d="M22.6283 44.5834C24.2527 44.6007 25.8618 44.2686 27.3466 43.6098C28.766 42.9383 30.0583 42.0261 31.1663 40.9136C32.2753 39.8055 33.1423 38.4795 33.7126 37.0191C33.9459 36.4317 34.1459 35.8317 34.3117 35.2217H27.4964C27.2098 36.0129 26.7491 36.7296 26.1483 37.3188C25.512 37.8959 24.776 38.3526 23.9764 38.6669C23.0475 39.0343 22.0543 39.2125 21.0556 39.191H19.5577V35.1475H13.1924V44.5834H22.6283Z" fill="#23F1D8"/>
<path d="M16.1889 26.7605H17.6119C18.6108 26.739 19.6038 26.9173 20.5328 27.2848C21.3459 27.6067 22.0848 28.0909 22.7047 28.7077C23.3071 29.3247 23.7673 30.0659 24.0528 30.8796C24.652 32.6272 24.652 34.5244 24.0528 36.272V36.3469H30.8668C31.0813 35.4393 31.1819 34.5083 31.1663 33.5758C31.1835 31.9998 30.8509 30.4394 30.1927 29.0073C29.6121 27.5744 28.7457 26.2748 27.6463 25.1877C26.5357 24.0979 25.243 23.2109 23.8268 22.5664C22.3467 21.8929 20.7343 21.5602 19.1085 21.5929H9.823V36.4211H16.1889V26.7605Z" fill="white"/>
<path d="M20.3037 45.5574C21.928 45.5749 23.5371 45.2428 25.022 44.5839C26.4228 43.9125 27.7113 43.0283 28.8415 41.9626C29.9506 40.8546 30.8177 39.5285 31.388 38.0682C31.6212 37.4806 31.8212 36.8806 31.9871 36.2707H25.1724C24.8858 37.0618 24.4251 37.7785 23.8243 38.3677C23.1915 38.9684 22.4559 39.4503 21.6524 39.7907C20.7234 40.1581 19.7304 40.3365 18.7316 40.315H17.3086V36.3463H10.9426V45.6325H20.3037V45.5574Z" fill="white"/>
<path d="M41.7973 18.6719H36.2551V33.7997H41.7973V18.6719Z" fill="#F52849"/>
<path d="M53.0311 42.8607V37.9934H42.7714V33.7993H37.2292V42.8607H53.0311Z" fill="#F52849"/>
<path d="M45.0941 20.3193H39.552V35.4471H45.0941V20.3193Z" fill="#23F1D8"/>
<path d="M56.3282 44.5089V39.6416H45.9936V35.4475H40.5264V44.5089H56.3282Z" fill="#23F1D8"/>
<path d="M42.7765 21.4425H37.2344V36.5703H42.7765V21.4425Z" fill="white"/>
<path d="M54.0101 45.5579V40.7647H43.6755V36.5706H38.2083V45.5579H54.0101Z" fill="white"/>
</g>
</g>
<defs>
<clipPath id="clip0_6212_19847">
<rect width="216" height="64" fill="white"/>
</clipPath>
<clipPath id="clip1_6212_19847">
<rect width="215.04" height="64" fill="white"/>
</clipPath>
</defs>
</svg>
